<svg xmlns="http://www.w3.org/2000/svg" width="23.077" height="13.8" viewBox="0 0 23.077 13.8">
  <g id="Raggruppa_130" data-name="Raggruppa 130" transform="translate(0 0)">
    <path id="Tracciato_232" data-name="Tracciato 232" d="M67.645,115.112a2.322,2.322,0,0,0,.084.683,4.109,4.109,0,0,0,.246.553.334.334,0,0,1,.054.177.3.3,0,0,1-.146.23l-.484.322a.368.368,0,0,1-.2.069.353.353,0,0,1-.23-.107,2.373,2.373,0,0,1-.276-.361c-.077-.13-.154-.276-.238-.453a2.835,2.835,0,0,1-2.256,1.059,2.1,2.1,0,0,1-1.535-.553,2.165,2.165,0,0,1,.13-3.055,2.792,2.792,0,0,1,1.88-.6,6.077,6.077,0,0,1,.813.061c.284.038.576.1.883.169v-.56a1.7,1.7,0,0,0-.361-1.228,1.767,1.767,0,0,0-1.251-.353,3.492,3.492,0,0,0-.829.1,6.114,6.114,0,0,0-.829.261,2.212,2.212,0,0,1-.269.1.471.471,0,0,1-.123.023c-.107,0-.161-.077-.161-.238v-.376a.486.486,0,0,1,.054-.269.574.574,0,0,1,.215-.161,4.42,4.42,0,0,1,.967-.345,4.654,4.654,0,0,1,1.2-.146,2.8,2.8,0,0,1,2.011.622,2.54,2.54,0,0,1,.637,1.888v2.487Zm-3.116,1.167a2.487,2.487,0,0,0,.79-.138,1.71,1.71,0,0,0,.729-.491,1.218,1.218,0,0,0,.261-.491,2.756,2.756,0,0,0,.077-.668v-.322a6.411,6.411,0,0,0-.706-.13,5.783,5.783,0,0,0-.721-.046,1.769,1.769,0,0,0-1.144.307,1.1,1.1,0,0,0,.714,1.98Zm6.163.829a.428.428,0,0,1-.292-.077.626.626,0,0,1-.161-.3l-1.8-5.933a1.345,1.345,0,0,1-.069-.307.168.168,0,0,1,.184-.192H69.3a.425.425,0,0,1,.3.077.628.628,0,0,1,.153.3l1.289,5.081,1.2-5.081a.538.538,0,0,1,.146-.3.528.528,0,0,1,.307-.077h.614a.462.462,0,0,1,.307.077.517.517,0,0,1,.146.3l1.213,5.142,1.328-5.142a.658.658,0,0,1,.154-.3.5.5,0,0,1,.3-.077h.714a.171.171,0,0,1,.192.192.766.766,0,0,1-.015.123,1.092,1.092,0,0,1-.054.192l-1.85,5.933a.589.589,0,0,1-.161.3.491.491,0,0,1-.292.077h-.66a.462.462,0,0,1-.307-.077.544.544,0,0,1-.146-.307l-1.19-4.95-1.182,4.943a.6.6,0,0,1-.146.307.476.476,0,0,1-.307.077Zm9.863.207a5.079,5.079,0,0,1-1.182-.138,3.491,3.491,0,0,1-.883-.307.553.553,0,0,1-.238-.215.542.542,0,0,1-.046-.215v-.391c0-.161.061-.238.177-.238a.435.435,0,0,1,.138.023c.046.015.115.046.192.077a4.174,4.174,0,0,0,.844.269,4.609,4.609,0,0,0,.913.092,2.071,2.071,0,0,0,1.121-.253.826.826,0,0,0,.4-.729.747.747,0,0,0-.207-.537,1.926,1.926,0,0,0-.775-.4l-1.113-.345a2.341,2.341,0,0,1-1.228-.783,1.829,1.829,0,0,1-.384-1.113,1.708,1.708,0,0,1,.207-.852,1.973,1.973,0,0,1,.553-.629,2.436,2.436,0,0,1,.8-.4,3.345,3.345,0,0,1,.967-.13,3.852,3.852,0,0,1,.514.031c.177.023.338.054.5.084s.3.077.437.123a1.676,1.676,0,0,1,.322.138.664.664,0,0,1,.23.192.414.414,0,0,1,.069.253v.361c0,.161-.061.246-.177.246a.8.8,0,0,1-.292-.092,3.511,3.511,0,0,0-1.474-.3,1.981,1.981,0,0,0-1.021.215.741.741,0,0,0-.361.683.725.725,0,0,0,.23.545,2.293,2.293,0,0,0,.844.422l1.09.345a2.334,2.334,0,0,1,1.19.737,1.737,1.737,0,0,1,.353,1.075,1.973,1.973,0,0,1-.2.89,2.064,2.064,0,0,1-.56.675,2.474,2.474,0,0,1-.852.43A3.651,3.651,0,0,1,80.555,117.315Z" transform="translate(-61.142 -110.1)" fill="#252f3e"/>
    <path id="Tracciato_233" data-name="Tracciato 233" d="M70.528,224.534a16.555,16.555,0,0,1-9.348,2.855,16.912,16.912,0,0,1-11.413-4.352c-.238-.215-.023-.507.261-.338A22.667,22.667,0,0,0,70.16,223.95C70.582,223.759,70.943,224.227,70.528,224.534Zm1.051-1.2c-.322-.414-2.134-.2-2.955-.1-.246.031-.284-.184-.061-.345,1.443-1.013,3.815-.721,4.091-.384s-.077,2.717-1.428,3.853c-.207.177-.407.084-.315-.146C71.219,225.455,71.9,223.743,71.58,223.336Z" transform="translate(-49.665 -213.589)" fill="#f90"/>
  </g>
</svg>
