<svg xmlns="http://www.w3.org/2000/svg" width="51.474" height="51.475" viewBox="0 0 51.474 51.475">
  <g id="Group_2265" data-name="Group 2265" transform="translate(-329.692 -331.903)">
    <path id="Path_177" data-name="Path 177" d="M372.8,331.9c-10.182,0-18.437,7.975-18.437,17.811a17.486,17.486,0,0,0,5.809,12.976,11.172,11.172,0,0,1,20.6,3.087,6.312,6.312,0,0,0,.2-.719,8.258,8.258,0,0,0-1.151-6.219,12.187,12.187,0,0,0-19.5-1.437,15.6,15.6,0,0,1-3.259-9.545A16.185,16.185,0,0,1,373.464,331.9" transform="translate(-17.538)" fill="#606061"/>
    <g id="Group_606" data-name="Group 606" transform="translate(329.692 331.905)">
      <path id="Path_178" data-name="Path 178" d="M451.51,463.238" transform="translate(-416.298 -425.277)" fill="#606061"/>
      <g id="Group_605" data-name="Group 605">
        <path id="Path_179" data-name="Path 179" d="M371.244,371.916a23.638,23.638,0,0,1-16.35,6.58,23.045,23.045,0,0,1-23.045-23.045,23.935,23.935,0,0,1,23.579-23.542A25.737,25.737,0,1,0,380.962,360.9,14,14,0,0,1,371.244,371.916Z" transform="translate(-329.692 -331.909)" fill="#606061"/>
        <path id="Path_180" data-name="Path 180" d="M493.107,435.207a10.639,10.639,0,0,0,.395-1.469C493.386,434.234,493.258,434.725,493.107,435.207Z" transform="translate(-445.871 -404.304)" fill="#606061"/>
        <path id="Path_181" data-name="Path 181" d="M507.26,422.981a25.942,25.942,0,0,1-.2,2.664,14.058,14.058,0,0,0,.2-2.369C507.268,423.177,507.262,423.079,507.26,422.981Z" transform="translate(-455.794 -396.656)" fill="#606061"/>
        <path id="Path_182" data-name="Path 182" d="M438.022,388.709s2.864-.007,3.3,0a13.991,13.991,0,0,0-26.973-4.262l3.079.991a10.736,10.736,0,0,1,20.081,6.968,20.381,20.381,0,0,0,.514-3.7Z" transform="translate(-389.878 -362.972)" fill="#606061"/>
        <path id="Path_183" data-name="Path 183" d="M436.184,438.82a10.749,10.749,0,0,1-12.024,7.058,6.3,6.3,0,0,1-3.135-1.185c-.023-.024-.047.047-.071.071a7.128,7.128,0,0,1-4.986,1.869,7.869,7.869,0,0,1-2.928-.552,6.823,6.823,0,0,0,5.488,2.446,13.774,13.774,0,0,0,3.37-.749h.007a25.435,25.435,0,0,0,4.527.749,13.989,13.989,0,0,0,4.068-.6A21.613,21.613,0,0,0,436.184,438.82Z" transform="translate(-388.949 -407.917)" fill="#606061"/>
        <path id="Path_184" data-name="Path 184" d="M483.336,420.94c-.435-.006-3.3,0-3.3,0h0a20.384,20.384,0,0,1-.514,3.7,10.645,10.645,0,0,1-.395,1.469,21.611,21.611,0,0,1-5.683,9.1,14,14,0,0,0,9.718-11.018,25.932,25.932,0,0,0,.2-2.664C483.355,421.331,483.348,421.135,483.336,420.94Z" transform="translate(-431.893 -395.203)" fill="#606061"/>
      </g>
    </g>
    <path id="Path_185" data-name="Path 185" d="M361.309,437.969h0a6.492,6.492,0,0,0,4.7-4.183,6.48,6.48,0,0,1-11.215-6.139,6.478,6.478,0,0,0,3.624,10.309c-.039.99.005,5,3.14,6.865,3.591,2.136,9.783,2.353,12.2-.588C373.756,444.232,363.2,446.69,361.309,437.969Z" transform="translate(-16.864 -68.068)" fill="#606061"/>
  </g>
</svg>
