<svg xmlns="http://www.w3.org/2000/svg" width="52.469" height="45.91" viewBox="0 0 52.469 45.91">
  <path id="camera-light" d="M33.234,35.279a.832.832,0,0,1,.769.533l2.265,6.026H47.55a1.644,1.644,0,0,1,1.64,1.64V72.991a1.644,1.644,0,0,1-1.64,1.64H4.919a1.644,1.644,0,0,1-1.64-1.64V43.478a1.644,1.644,0,0,1,1.64-1.64H16.212l2.06-5.493a1.643,1.643,0,0,1,1.537-1.066H33.234m0-3.279H19.809a4.912,4.912,0,0,0-4.6,3.187l-1.271,3.372H4.919A4.92,4.92,0,0,0,0,43.478V72.991A4.92,4.92,0,0,0,4.919,77.91H47.55a4.92,4.92,0,0,0,4.919-4.919V43.478a4.92,4.92,0,0,0-4.919-4.919H38.532l-1.465-3.894A4.075,4.075,0,0,0,33.234,32Zm-7,38.532a12.3,12.3,0,1,1,12.3-12.3A12.307,12.307,0,0,1,26.234,70.532Zm0-21.315a9.018,9.018,0,1,0,9.018,9.018A9.031,9.031,0,0,0,26.234,49.216Z" transform="translate(0 -32)" fill="#fff"/>
</svg>
