<svg xmlns="http://www.w3.org/2000/svg" xmlns:xlink="http://www.w3.org/1999/xlink" viewBox="0 0 927.16 93.28"><defs><style>.cls-1{mask:url(#mask);filter:url(#luminosity-noclip-3);}.cls-2,.cls-4{mix-blend-mode:multiply;}.cls-2{fill:url(#linear-gradient);}.cls-3{mask:url(#mask-2);filter:url(#luminosity-noclip-4);}.cls-4{fill:url(#linear-gradient-2);}.cls-5{mask:url(#mask-3);}.cls-6{fill:url(#Sfumatura_senza_nome_7);}.cls-7{mask:url(#mask-4);}.cls-8{opacity:0.3;fill:url(#Sfumatura_senza_nome_7-2);}.cls-9{filter:url(#luminosity-noclip-2);}.cls-10{filter:url(#luminosity-noclip);}</style><filter id="luminosity-noclip" x="0" y="-8305.77" width="511.81" height="32766" filterUnits="userSpaceOnUse" color-interpolation-filters="sRGB"><feFlood flood-color="#fff" result="bg"/><feBlend in="SourceGraphic" in2="bg"/></filter><mask id="mask" x="0" y="-8305.77" width="511.81" height="32766" maskUnits="userSpaceOnUse"><g class="cls-10"/></mask><linearGradient id="linear-gradient" x1="251.44" y1="-8.22" x2="256.54" y2="107.29" gradientUnits="userSpaceOnUse"><stop offset="0" stop-color="#fff"/><stop offset="1"/></linearGradient><filter id="luminosity-noclip-2" x="375.72" y="-8305.77" width="551.45" height="32766" filterUnits="userSpaceOnUse" color-interpolation-filters="sRGB"><feFlood flood-color="#fff" result="bg"/><feBlend in="SourceGraphic" in2="bg"/></filter><mask id="mask-2" x="375.72" y="-8305.77" width="551.45" height="32766" maskUnits="userSpaceOnUse"><g class="cls-9"/></mask><linearGradient id="linear-gradient-2" x1="651.44" y1="2.48" x2="651.44" y2="95.76" xlink:href="#linear-gradient"/><filter id="luminosity-noclip-3" x="0" y="24.89" width="511.81" height="68.39" filterUnits="userSpaceOnUse" color-interpolation-filters="sRGB"><feFlood flood-color="#fff" result="bg"/><feBlend in="SourceGraphic" in2="bg"/></filter><mask id="mask-3" x="0" y="24.89" width="511.81" height="68.39" maskUnits="userSpaceOnUse"><g class="cls-1"><path class="cls-2" d="M0,92.86A39.49,39.49,0,0,0,28.8,75.17C39.73,58.41,55.62,51.89,72.5,52.83S110.25,75.17,142,61.2s50.62-29.11,77.47-28.86c27,.25,66.92,32.31,92.28,32.59,26.05.28,48.8-40.29,78.55-40,30.83.26,54.62,25.14,74.49,41.9,24.37,20.57,31.78,25.14,46.68,26.07S0,92.86,0,92.86Z"/></g></mask><linearGradient id="Sfumatura_senza_nome_7" x1="251.44" y1="-8.22" x2="256.54" y2="107.29" gradientUnits="userSpaceOnUse"><stop offset="0" stop-color="#fc9"/><stop offset="1" stop-color="#fff"/></linearGradient><filter id="luminosity-noclip-4" x="375.72" y="0" width="551.45" height="93.28" filterUnits="userSpaceOnUse" color-interpolation-filters="sRGB"><feFlood flood-color="#fff" result="bg"/><feBlend in="SourceGraphic" in2="bg"/></filter><mask id="mask-4" x="375.72" y="0" width="551.45" height="93.28" maskUnits="userSpaceOnUse"><g class="cls-3"><path class="cls-4" d="M927.16,92.73S879.65,88,856.57,69.32C829,47,803.26,43.81,788.2,44.05c-30.39.5-58,25.27-86,6.78s-44.77-35.73-68.4-38.2-71,33.27-92.08,43.13S508,13.07,482.93,2.78C447-12,434.7,36.05,417.16,58.23c-21.52,27.21-28.06,33.27-41.22,34.5S927.16,92.73,927.16,92.73Z"/></g></mask><linearGradient id="Sfumatura_senza_nome_7-2" x1="651.44" y1="2.48" x2="651.44" y2="95.76" xlink:href="#Sfumatura_senza_nome_7"/></defs><title>montagne</title><g id="Livello_2" data-name="Livello 2"><g id="Layer_3" data-name="Layer 3"><g class="cls-5"><path class="cls-6" d="M0,92.86A39.49,39.49,0,0,0,28.8,75.17C39.73,58.41,55.62,51.89,72.5,52.83S110.25,75.17,142,61.2s50.62-29.11,77.47-28.86c27,.25,66.92,32.31,92.28,32.59,26.05.28,48.8-40.29,78.55-40,30.83.26,54.62,25.14,74.49,41.9,24.37,20.57,31.78,25.14,46.68,26.07S0,92.86,0,92.86Z"/></g><g class="cls-7"><path class="cls-8" d="M927.16,92.73S879.65,88,856.57,69.32C829,47,803.26,43.81,788.2,44.05c-30.39.5-58,25.27-86,6.78s-44.77-35.73-68.4-38.2-71,33.27-92.08,43.13S508,13.07,482.93,2.78C447-12,434.7,36.05,417.16,58.23c-21.52,27.21-28.06,33.27-41.22,34.5S927.16,92.73,927.16,92.73Z"/></g></g></g></svg>