<svg xmlns="http://www.w3.org/2000/svg" width="32" height="32" fill="#000000" viewBox="0 0 256 256"><path d="M197.66,186.34a8,8,0,0,1,0,11.32C196.58,198.73,170.82,224,128,224c-23.36,0-46.13-9.1-66.28-26.41L45.66,213.66A8,8,0,0,1,32,208V160a8,8,0,0,1,8-8H88a8,8,0,0,1,5.66,13.66L73.08,186.24C86.08,197.15,104.83,208,128,208c36.27,0,58.13-21.44,58.34-21.66A8,8,0,0,1,197.66,186.34Zm21.4-145.73a8,8,0,0,0-8.72,1.73L194.28,58.41C174.13,41.1,151.36,32,128,32,85.18,32,59.42,57.27,58.34,58.34A8,8,0,0,0,69.66,69.66C69.87,69.44,91.73,48,128,48c23.17,0,41.92,10.85,54.92,21.76L162.34,90.34A8,8,0,0,0,168,104h48a8,8,0,0,0,8-8V48A8,8,0,0,0,219.06,40.61Z"></path></svg>