<svg xmlns="http://www.w3.org/2000/svg" viewBox="0 0 512 512"><!--! Font Awesome Pro 6.4.0 by @fontawesome - https://fontawesome.com License - https://fontawesome.com/license (Commercial License) Copyright 2023 Fonticons, Inc. --><path d="M256 32c-35.3 0-64 28.7-64 64H320c0-35.3-28.7-64-64-64zM160 96c0-53 43-96 96-96s96 43 96 96v32H320 192 160V96zM48 89.4l11.3 11.3L118.6 160H128 384h9.4l59.3-59.3L464 89.4 486.6 112l-11.3 11.3L416 182.6V192v80h80 16v32H496 416v16c0 30.2-8.4 58.4-22.9 82.5l74.2 74.2L478.6 488 456 510.6l-11.3-11.3-71-71C344.5 460.1 302.6 480 256 480s-88.5-19.9-117.7-51.6l-71 71L56 510.6 33.4 488l11.3-11.3 74.2-74.2C104.4 378.4 96 350.2 96 320V304H16 0V272H16 96V192v-9.4L36.7 123.3 25.4 112 48 89.4zM128 304v16c0 65.3 48.9 119.1 112 127V256 240h32v16V447c63.1-7.9 112-61.7 112-127V304 272 192H128v80 32z"/></svg>