<svg width="22" height="16" viewBox="0 0 22 16" fill="none" xmlns="http://www.w3.org/2000/svg">
<path d="M21.8237 7.99846C21.8283 9.73077 21.2663 11.4171 20.2234 12.8003C20.166 12.8767 20.0941 12.9411 20.0117 12.9897C19.9294 13.0383 19.8384 13.0703 19.7437 13.0837C19.6491 13.0971 19.5527 13.0918 19.4601 13.0679C19.3675 13.0441 19.2805 13.0023 19.2041 12.9449C19.1277 12.8874 19.0633 12.8155 19.0147 12.7332C18.9661 12.6509 18.9342 12.5598 18.9207 12.4652C18.9073 12.3705 18.9127 12.2741 18.9365 12.1816C18.9603 12.089 19.0021 12.002 19.0596 11.9256C19.9132 10.7947 20.3731 9.41537 20.3689 7.99846C20.3689 6.26216 19.6792 4.59698 18.4514 3.36923C17.2237 2.14148 15.5585 1.45174 13.8222 1.45174C12.0859 1.45174 10.4207 2.14148 9.19295 3.36923C7.96521 4.59698 7.27547 6.26216 7.27547 7.99846C7.27547 8.19138 7.19883 8.3764 7.06241 8.51282C6.92599 8.64923 6.74097 8.72587 6.54805 8.72587C6.35513 8.72587 6.17011 8.64923 6.03369 8.51282C5.89728 8.3764 5.82064 8.19138 5.82064 7.99846C5.82028 7.26439 5.92094 6.53376 6.11979 5.82713C6.02068 5.81622 5.92066 5.81622 5.82064 5.81622C4.66311 5.81622 3.55299 6.27605 2.73449 7.09455C1.91599 7.91304 1.45616 9.02317 1.45616 10.1807C1.45616 11.3382 1.91599 12.4484 2.73449 13.2668C3.55299 14.0853 4.66311 14.5452 5.82064 14.5452H8.00288C8.1958 14.5452 8.38082 14.6218 8.51724 14.7582C8.65365 14.8946 8.73029 15.0797 8.73029 15.2726C8.73029 15.4655 8.65365 15.6505 8.51724 15.7869C8.38082 15.9234 8.1958 16 8.00288 16H5.82064C5.02064 16.0002 4.2292 15.8354 3.49575 15.516C2.76229 15.1966 2.10257 14.7293 1.55779 14.1435C1.01302 13.5577 0.594883 12.8658 0.329507 12.1111C0.0641307 11.3564 -0.0427876 10.5551 0.0154299 9.75721C0.0736473 8.95934 0.29575 8.18204 0.667866 7.47386C1.03998 6.76568 1.55412 6.14183 2.17817 5.64127C2.80221 5.14071 3.52277 4.7742 4.29482 4.56463C5.06688 4.35505 5.87385 4.30692 6.66535 4.42323C7.47132 2.81124 8.79789 1.51855 10.4302 0.754547C12.0625 -0.00945698 13.9049 -0.200032 15.659 0.213692C17.4131 0.627415 18.9762 1.62121 20.0951 3.03409C21.2139 4.44698 21.823 6.19621 21.8237 7.99846ZM13.6094 7.48381C13.5419 7.41618 13.4616 7.36253 13.3733 7.32592C13.285 7.28932 13.1904 7.27047 13.0948 7.27047C12.9992 7.27047 12.9045 7.28932 12.8162 7.32592C12.7279 7.36253 12.6477 7.41618 12.5801 7.48381L9.67047 10.3935C9.60289 10.461 9.54928 10.5413 9.5127 10.6296C9.47612 10.7179 9.4573 10.8125 9.4573 10.9081C9.4573 11.0037 9.47612 11.0983 9.5127 11.1866C9.54928 11.2749 9.60289 11.3552 9.67047 11.4228C9.80696 11.5592 9.99209 11.6359 10.1851 11.6359C10.2807 11.6359 10.3753 11.6171 10.4636 11.5805C10.5519 11.5439 10.6322 11.4903 10.6998 11.4228L12.3674 9.75425V15.2726C12.3674 15.4655 12.444 15.6505 12.5804 15.7869C12.7168 15.9234 12.9018 16 13.0948 16C13.2877 16 13.4727 15.9234 13.6091 15.7869C13.7455 15.6505 13.8222 15.4655 13.8222 15.2726V9.75425L15.4898 11.4228C15.5574 11.4903 15.6376 11.5439 15.7259 11.5805C15.8142 11.6171 15.9088 11.6359 16.0044 11.6359C16.1 11.6359 16.1946 11.6171 16.2829 11.5805C16.3712 11.5439 16.4515 11.4903 16.5191 11.4228C16.5866 11.3552 16.6403 11.2749 16.6768 11.1866C16.7134 11.0983 16.7322 11.0037 16.7322 10.9081C16.7322 10.8125 16.7134 10.7179 16.6768 10.6296C16.6403 10.5413 16.5866 10.461 16.5191 10.3935L13.6094 7.48381Z" fill="#28C840"/>
</svg>
