<svg width="22" height="16" viewBox="0 0 22 16" fill="none" xmlns="http://www.w3.org/2000/svg">
<path d="M13.8133 0C12.3276 0.00114053 10.8714 0.415578 9.60776 1.19696C8.34409 1.97835 7.3227 3.09587 6.65784 4.42455C5.86689 4.30919 5.06066 4.35805 4.28943 4.56807C3.51821 4.77809 2.79853 5.14478 2.17528 5.64525C1.55204 6.14571 1.0386 6.76924 0.666995 7.47692C0.29539 8.1846 0.0735878 8.96126 0.0154245 9.75845C-0.0427388 10.5556 0.0639839 11.3563 0.328936 12.1104C0.593888 12.8645 1.01139 13.556 1.55539 14.1416C2.09939 14.7272 2.75823 15.1945 3.4908 15.5142C4.22338 15.834 5.01398 15.9993 5.8133 16H13.8133C15.935 16 17.9699 15.1571 19.4701 13.6569C20.9704 12.1566 21.8133 10.1217 21.8133 8C21.8133 5.87827 20.9704 3.84344 19.4701 2.34315C17.9699 0.842855 15.935 0 13.8133 0ZM13.8133 14.5455H5.8133C4.65599 14.5455 3.54608 14.0857 2.72774 13.2674C1.9094 12.449 1.44966 11.3391 1.44966 10.1818C1.44966 9.02451 1.9094 7.9146 2.72774 7.09626C3.54608 6.27792 4.65599 5.81818 5.8133 5.81818C5.9133 5.81818 6.0133 5.81818 6.11239 5.82818C5.9135 6.53497 5.81286 7.26577 5.8133 8C5.8133 8.19289 5.88992 8.37787 6.02631 8.51426C6.1627 8.65065 6.34768 8.72727 6.54057 8.72727C6.73345 8.72727 6.91844 8.65065 7.05483 8.51426C7.19122 8.37787 7.26784 8.19289 7.26784 8C7.26784 6.70543 7.65172 5.43993 8.37095 4.36354C9.09017 3.28715 10.1124 2.4482 11.3085 1.95279C12.5045 1.45738 13.8206 1.32776 15.0903 1.58031C16.3599 1.83287 17.5262 2.45627 18.4416 3.37166C19.357 4.28706 19.9804 5.45335 20.233 6.72305C20.4855 7.99274 20.3559 9.30881 19.8605 10.5048C19.3651 11.7009 18.5261 12.7231 17.4498 13.4423C16.3734 14.1616 15.1079 14.5455 13.8133 14.5455ZM16.5097 7.06L14.8415 8.72727L16.5097 10.3945C16.5772 10.4621 16.6308 10.5423 16.6674 10.6306C16.704 10.7189 16.7228 10.8135 16.7228 10.9091C16.7228 11.0047 16.704 11.0993 16.6674 11.1876C16.6308 11.2758 16.5772 11.3561 16.5097 11.4236C16.4421 11.4912 16.3619 11.5448 16.2736 11.5814C16.1853 11.6179 16.0907 11.6368 15.9951 11.6368C15.8996 11.6368 15.8049 11.6179 15.7166 11.5814C15.6284 11.5448 15.5481 11.4912 15.4806 11.4236L13.8133 9.75546L12.146 11.4236C12.0096 11.5601 11.8245 11.6368 11.6315 11.6368C11.4385 11.6368 11.2534 11.5601 11.1169 11.4236C10.9805 11.2872 10.9038 11.1021 10.9038 10.9091C10.9038 10.7161 10.9805 10.531 11.1169 10.3945L12.7851 8.72727L11.1169 7.06C10.9805 6.92353 10.9038 6.73845 10.9038 6.54545C10.9038 6.35246 10.9805 6.16738 11.1169 6.03091C11.2534 5.89444 11.4385 5.81778 11.6315 5.81778C11.8245 5.81778 12.0096 5.89444 12.146 6.03091L13.8133 7.69909L15.4806 6.03091C15.5481 5.96334 15.6284 5.90974 15.7166 5.87317C15.8049 5.8366 15.8996 5.81778 15.9951 5.81778C16.0907 5.81778 16.1853 5.8366 16.2736 5.87317C16.3619 5.90974 16.4421 5.96334 16.5097 6.03091C16.5772 6.09848 16.6308 6.1787 16.6674 6.26698C16.704 6.35527 16.7228 6.44989 16.7228 6.54545C16.7228 6.64101 16.704 6.73564 16.6674 6.82393C16.6308 6.91221 16.5772 6.99243 16.5097 7.06Z" fill="#FF3857"/>
</svg>
