<svg width="22" height="16" viewBox="0 0 22 16" fill="none" xmlns="http://www.w3.org/2000/svg">
<path d="M13.8133 0C12.3276 0.00114053 10.8714 0.415578 9.60776 1.19696C8.34409 1.97835 7.3227 3.09587 6.65784 4.42455C5.86689 4.30919 5.06066 4.35805 4.28943 4.56807C3.51821 4.77809 2.79853 5.14478 2.17528 5.64525C1.55204 6.14571 1.0386 6.76924 0.666995 7.47692C0.29539 8.1846 0.0735878 8.96126 0.0154245 9.75845C-0.0427388 10.5556 0.0639839 11.3563 0.328936 12.1104C0.593888 12.8645 1.01139 13.556 1.55539 14.1416C2.09939 14.7272 2.75823 15.1945 3.4908 15.5142C4.22338 15.834 5.01398 15.9993 5.8133 16H13.8133C15.935 16 17.9699 15.1571 19.4701 13.6569C20.9704 12.1566 21.8133 10.1217 21.8133 8C21.8133 5.87827 20.9704 3.84344 19.4701 2.34315C17.9699 0.842855 15.935 0 13.8133 0ZM13.8133 14.5455H5.8133C4.65599 14.5455 3.54608 14.0857 2.72774 13.2674C1.9094 12.449 1.44966 11.3391 1.44966 10.1818C1.44966 9.02451 1.9094 7.9146 2.72774 7.09626C3.54608 6.27792 4.65599 5.81818 5.8133 5.81818C5.9133 5.81818 6.0133 5.81818 6.11239 5.82818C5.9135 6.53497 5.81286 7.26577 5.8133 8C5.8133 8.19289 5.88992 8.37787 6.02631 8.51426C6.1627 8.65065 6.34768 8.72727 6.54057 8.72727C6.73345 8.72727 6.91844 8.65065 7.05483 8.51426C7.19122 8.37787 7.26784 8.19289 7.26784 8C7.26784 6.70543 7.65172 5.43993 8.37095 4.36354C9.09017 3.28715 10.1124 2.4482 11.3085 1.95279C12.5045 1.45738 13.8206 1.32776 15.0903 1.58031C16.3599 1.83287 17.5262 2.45627 18.4416 3.37166C19.357 4.28706 19.9804 5.45335 20.233 6.72305C20.4855 7.99274 20.3559 9.30881 19.8605 10.5048C19.3651 11.7009 18.5261 12.7231 17.4498 13.4423C16.3734 14.1616 15.1079 14.5455 13.8133 14.5455ZM13.086 8V4.36364C13.086 4.17075 13.1626 3.98577 13.299 3.84938C13.4354 3.71299 13.6204 3.63636 13.8133 3.63636C14.0062 3.63636 14.1912 3.71299 14.3276 3.84938C14.4639 3.98577 14.5406 4.17075 14.5406 4.36364V8C14.5406 8.19289 14.4639 8.37787 14.3276 8.51426C14.1912 8.65065 14.0062 8.72727 13.8133 8.72727C13.6204 8.72727 13.4354 8.65065 13.299 8.51426C13.1626 8.37787 13.086 8.19289 13.086 8ZM14.9042 11.2727C14.9042 11.4885 14.8402 11.6994 14.7204 11.8788C14.6005 12.0582 14.4301 12.198 14.2308 12.2806C14.0314 12.3632 13.8121 12.3848 13.6005 12.3427C13.3889 12.3006 13.1945 12.1967 13.0419 12.0441C12.8893 11.8916 12.7854 11.6972 12.7433 11.4856C12.7013 11.2739 12.7229 11.0546 12.8054 10.8553C12.888 10.6559 13.0278 10.4855 13.2072 10.3657C13.3866 10.2458 13.5975 10.1818 13.8133 10.1818C14.1026 10.1818 14.3801 10.2968 14.5847 10.5013C14.7893 10.7059 14.9042 10.9834 14.9042 11.2727Z" fill="#FEBC2E"/>
</svg>
