<svg width="20" height="16" viewBox="0 0 20 16" fill="none" xmlns="http://www.w3.org/2000/svg">
<path d="M3.82384 0.224083C3.76534 0.158137 3.69433 0.104459 3.61493 0.0661583C3.53553 0.027858 3.44931 0.00569772 3.36129 0.000961982C3.27326 -0.00377375 3.18517 0.00900911 3.10211 0.0385698C3.01906 0.0681305 2.9427 0.113881 2.87746 0.17317C2.81222 0.232459 2.7594 0.304106 2.72206 0.38396C2.68471 0.463814 2.66358 0.550287 2.6599 0.638365C2.65622 0.726444 2.67006 0.814377 2.70062 0.897068C2.73117 0.979759 2.77783 1.05556 2.8379 1.12009L6.10548 4.71493L6.10049 4.72492C5.84512 4.68797 5.58743 4.66932 5.32939 4.66913C3.91595 4.66913 2.5604 5.23062 1.56094 6.23007C0.561488 7.22953 0 8.58508 0 9.99852C0 11.412 0.561488 12.7675 1.56094 13.767C2.5604 14.7664 3.91595 15.3279 5.32939 15.3279H12.6573C13.563 15.3296 14.4611 15.1622 15.3053 14.8341L16.1614 15.7759C16.2199 15.8419 16.2909 15.8955 16.3703 15.9338C16.4497 15.9721 16.5359 15.9943 16.6239 15.999C16.712 16.0038 16.8001 15.991 16.8831 15.9614C16.9662 15.9319 17.0425 15.8861 17.1078 15.8268C17.173 15.7675 17.2258 15.6959 17.2632 15.616C17.3005 15.5362 17.3216 15.4497 17.3253 15.3616C17.329 15.2736 17.3152 15.1856 17.2846 15.1029C17.254 15.0202 17.2074 14.9444 17.1473 14.8799L3.82384 0.224083ZM12.6573 13.9956H5.32939C4.26931 13.9956 3.25265 13.5745 2.50306 12.8249C1.75346 12.0753 1.33235 11.0586 1.33235 9.99852C1.33235 8.93844 1.75346 7.92178 2.50306 7.17219C3.25265 6.42259 4.26931 6.00148 5.32939 6.00148C5.42099 6.00148 5.51259 6.00148 5.60419 6.01147C5.42222 6.65866 5.32976 7.32772 5.32939 8C5.32939 8.17668 5.39958 8.34613 5.52451 8.47106C5.64944 8.59599 5.81889 8.66617 5.99557 8.66617C6.17225 8.66617 6.34169 8.59599 6.46662 8.47106C6.59155 8.34613 6.66174 8.17668 6.66174 8C6.66198 7.24338 6.80493 6.4936 7.0831 5.78997L14.3277 13.7591C13.7849 13.9166 13.2225 13.9962 12.6573 13.9956ZM19.9852 8C19.9863 9.80039 19.3237 11.538 18.1241 12.8806C18.004 13.0008 17.8425 13.0707 17.6726 13.0757C17.5027 13.0808 17.3372 13.0208 17.2102 12.9078C17.0831 12.7949 17.004 12.6377 16.9891 12.4684C16.9741 12.2991 17.0245 12.1305 17.1298 11.997C18.1194 10.8918 18.6641 9.45889 18.6586 7.97536C18.6531 6.49183 18.0977 5.06302 17.0999 3.96517C16.1021 2.86731 14.7327 2.17838 13.2565 2.03155C11.7802 1.88472 10.3019 2.29043 9.10743 3.17024C9.03695 3.22207 8.95695 3.25952 8.87201 3.28043C8.78706 3.30135 8.69882 3.30533 8.61233 3.29215C8.52584 3.27896 8.4428 3.24887 8.36794 3.2036C8.29308 3.15832 8.22787 3.09874 8.17604 3.02826C8.07135 2.88592 8.0275 2.70783 8.05413 2.53316C8.08075 2.35849 8.17568 2.20155 8.31802 2.09686C9.40962 1.2947 10.7022 0.810817 12.0522 0.698962C13.4022 0.587106 14.7569 0.851656 15.9656 1.46323C17.1743 2.0748 18.1899 3.00946 18.8995 4.16339C19.609 5.31732 19.9849 6.64535 19.9852 8Z" fill="#DADADA"/>
</svg>
